<svg xmlns="http://www.w3.org/2000/svg" width="251.61" height="35" viewBox="0 0 251.61 35"><rect class="svg__rect" x="0" y="0" width="100.05" height="35" fill="#31C4F3"/><rect class="svg__rect" x="98.05" y="0" width="153.56" height="35" fill="#389AD5"/><path class="svg__text" d="M13.61 19.57L13.61 19.57L15.09 19.57Q15.09 20.25 15.43 20.59Q15.76 20.93 16.40 20.93L16.40 20.93Q17.00 20.93 17.35 20.54Q17.71 20.14 17.71 19.45L17.71 19.45L17.71 13.47L19.19 13.47L19.19 19.45Q19.19 20.68 18.42 21.40Q17.66 22.12 16.40 22.12L16.40 22.12Q15.07 22.12 14.34 21.44Q13.61 20.77 13.61 19.57ZM23.60 18.00L23.60 18.00L23.60 17.52Q23.60 16.28 24.04 15.32Q24.48 14.37 25.29 13.86Q26.09 13.35 27.14 13.35Q28.18 13.35 28.99 13.85Q29.79 14.35 30.23 15.29Q30.67 16.23 30.68 17.48L30.68 17.48L30.68 17.96Q30.68 19.21 30.24 20.16Q29.81 21.10 29.00 21.61Q28.20 22.12 27.15 22.12L27.15 22.12Q26.11 22.12 25.30 21.61Q24.49 21.10 24.05 20.17Q23.60 19.23 23.60 18.00ZM25.08 17.46L25.08 17.96Q25.08 19.36 25.63 20.13Q26.18 20.90 27.15 20.90L27.15 20.90Q28.13 20.90 28.66 20.15Q29.19 19.40 29.19 17.96L29.19 17.96L29.19 17.51Q29.19 16.09 28.66 15.34Q28.12 14.58 27.14 14.58L27.14 14.58Q26.18 14.58 25.63 15.33Q25.09 16.09 25.08 17.46L25.08 17.46ZM36.71 22L35.23 22L35.23 13.47L36.71 13.47L36.71 22ZM43.00 22L41.52 22L41.52 13.47L43.00 13.47L46.81 19.54L46.81 13.47L48.28 13.47L48.28 22L46.80 22L43.00 15.95L43.00 22ZM60.68 14.66L58.05 14.66L58.05 13.47L64.81 13.47L64.81 14.66L62.15 14.66L62.15 22L60.68 22L60.68 14.66ZM70.05 22L68.57 22L68.57 13.47L70.05 13.47L70.05 17.02L73.87 17.02L73.87 13.47L75.34 13.47L75.34 22L73.87 22L73.87 18.21L70.05 18.21L70.05 22ZM85.66 22L80.08 22L80.08 13.47L85.62 13.47L85.62 14.66L81.56 14.66L81.56 17.02L85.07 17.02L85.07 18.19L81.56 18.19L81.56 20.82L85.66 20.82L85.66 22Z" fill="#FFFFFF"/><path class="svg__text" d="M114.44 22L112.24 22L112.24 13.60L114.19 13.60L117.15 18.45L120.03 13.60L121.98 13.60L122.01 22L119.83 22L119.80 17.55L117.64 21.17L116.59 21.17L114.44 17.67L114.44 22ZM128.59 22L126.16 22L129.87 13.60L132.21 13.60L135.93 22L133.46 22L132.80 20.37L129.25 20.37L128.59 22ZM131.02 15.93L129.94 18.61L132.10 18.61L131.02 15.93ZM141.87 15.48L139.29 15.48L139.29 13.60L146.81 13.60L146.81 15.48L144.25 15.48L144.25 22L141.87 22L141.87 15.48ZM153.56 22L151.19 22L151.19 13.60L155.03 13.60Q156.17 13.60 157.01 13.98Q157.85 14.35 158.30 15.06Q158.76 15.76 158.76 16.71L158.76 16.71Q158.76 17.62 158.33 18.30Q157.91 18.98 157.11 19.36L157.11 19.36L158.93 22L156.38 22L154.86 19.77L153.56 19.77L153.56 22ZM153.56 15.47L153.56 17.93L154.88 17.93Q155.61 17.93 155.99 17.61Q156.36 17.29 156.36 16.71L156.36 16.71Q156.36 16.12 155.99 15.79Q155.61 15.47 154.88 15.47L154.88 15.47L153.56 15.47ZM165.93 22L163.55 22L163.55 13.60L165.93 13.60L165.93 22ZM172.95 22L170.24 22L173.30 17.75L170.37 13.60L173.05 13.60L174.73 16.02L176.38 13.60L178.95 13.60L176.02 17.66L179.15 22L176.41 22L174.67 19.40L172.95 22ZM192.78 22L190.40 22L190.40 13.60L194.25 13.60Q195.39 13.60 196.23 13.98Q197.06 14.35 197.52 15.06Q197.98 15.76 197.98 16.71L197.98 16.71Q197.98 17.62 197.55 18.30Q197.12 18.98 196.33 19.36L196.33 19.36L198.14 22L195.60 22L194.08 19.77L192.78 19.77L192.78 22ZM192.78 15.47L192.78 17.93L194.10 17.93Q194.83 17.93 195.20 17.61Q195.58 17.29 195.58 16.71L195.58 16.71Q195.58 16.12 195.20 15.79Q194.83 15.47 194.10 15.47L194.10 15.47L192.78 15.47ZM202.34 17.80L202.34 17.80Q202.34 16.55 202.94 15.55Q203.54 14.56 204.61 14.00Q205.67 13.43 207.00 13.43L207.00 13.43Q208.33 13.43 209.40 14.00Q210.46 14.56 211.07 15.55Q211.67 16.55 211.67 17.80L211.67 17.80Q211.67 19.05 211.07 20.04Q210.46 21.04 209.40 21.60Q208.34 22.17 207.00 22.17L207.00 22.17Q205.67 22.17 204.61 21.60Q203.54 21.04 202.94 20.04Q202.34 19.05 202.34 17.80ZM204.73 17.80L204.73 17.80Q204.73 18.51 205.04 19.05Q205.34 19.60 205.85 19.90Q206.37 20.20 207.00 20.20L207.00 20.20Q207.64 20.20 208.16 19.90Q208.67 19.60 208.97 19.05Q209.27 18.51 209.27 17.80L209.27 17.80Q209.27 17.09 208.97 16.54Q208.67 16 208.16 15.70Q207.64 15.40 207.00 15.40L207.00 15.40Q206.36 15.40 205.85 15.70Q205.34 16 205.04 16.54Q204.73 17.09 204.73 17.80ZM215.97 17.80L215.97 17.80Q215.97 16.55 216.58 15.55Q217.18 14.56 218.24 14.00Q219.31 13.43 220.64 13.43L220.64 13.43Q221.97 13.43 223.03 14.00Q224.09 14.56 224.70 15.55Q225.31 16.55 225.31 17.80L225.31 17.80Q225.31 19.05 224.70 20.04Q224.09 21.04 223.03 21.60Q221.97 22.17 220.64 22.17L220.64 22.17Q219.31 22.17 218.24 21.60Q217.18 21.04 216.58 20.04Q215.97 19.05 215.97 17.80ZM218.37 17.80L218.37 17.80Q218.37 18.51 218.67 19.05Q218.97 19.60 219.49 19.90Q220.00 20.20 220.64 20.20L220.64 20.20Q221.28 20.20 221.79 19.90Q222.31 19.60 222.61 19.05Q222.90 18.51 222.90 17.80L222.90 17.80Q222.90 17.09 222.61 16.54Q222.31 16 221.79 15.70Q221.28 15.40 220.64 15.40L220.64 15.40Q220.00 15.40 219.48 15.70Q218.97 16 218.67 16.54Q218.37 17.09 218.37 17.80ZM232.23 22L230.03 22L230.03 13.60L231.99 13.60L234.94 18.45L237.83 13.60L239.78 13.60L239.80 22L237.62 22L237.60 17.55L235.44 21.17L234.38 21.17L232.23 17.67L232.23 22Z" fill="#FFFFFF" x="111.05"/></svg>